<svg xmlns="http://www.w3.org/2000/svg"><style>:root svg:not(:target){display:none}</style><svg fill="none" id="icon-favourites" viewBox="0 0 18 17"><path d="M8.9 17a.9.9 0 0 1-.8-.4c-5.4-6.1-6.7-7.5-7-7.9A5.4 5.4 0 0 1 5.5 0C6.8 0 8 .5 9 1.3a5.46 5.46 0 0 1 9 4.1c0 1.3-.5 2.5-1.3 3.4l-7 7.9c-.2.2-.4.3-.8.3Zm-6-9.5c.3.4 3.5 4 6.1 6.9l6.2-7c.5-.5.7-1.2.7-2 0-1.8-1.5-3.3-3.3-3.3-1 0-2 .5-2.7 1.3-.3.3-.6.4-.9.4-.3 0-.6-.2-.8-.4-.7-.8-1.7-1.3-2.7-1.3-1.8 0-3.3 1.5-3.3 3.3-.1.9.3 1.6.7 2.1-.1 0-.1 0 0 0Z" fill="#000"></path></svg><svg fill="none" id="icon-home-breadcrumbs" viewBox="0 0 13 15"><path fill="#fff" d="m6.5.5-6 5.8v6.2h12V6.3L6.5.5Zm5 11h-10V6.7l5-4.8 5 4.8v4.8Z"></path><path fill="#fff" d="M4.5 10.5h1V8h2v2.5h1V7h-4v3.5Z"></path></svg><svg fill="none" id="icon-logo-html-academy" viewBox="0 0 115 34"><path d="M0 13.26v2.6h2.5v-2.6H0ZM11.6 4.86c-1.6 0-2.8.7-3.6 1.7h-.1V.36h-2v15.5h2v-5.3c0-2.1 1.3-3.6 3.3-3.6 1.8 0 2.9 1.4 2.9 3.2v5.7h2v-6.1c.1-3-1.8-4.9-4.5-4.9ZM26.6 5.16h-4.8v-3.7h-2v3.8h-1.9v2h1.9v6c0 1.7 1 2.7 2.7 2.7h4.1v-2h-3.7c-.7 0-1.1-.4-1.1-1.1v-5.7h4.8v-2ZM41.1 4.96c-1.6 0-2.9.8-3.5 2.1h-.1c-.6-1.2-1.8-2.1-3.4-2.1-1.4 0-2.5.8-3.1 1.8h-.1v-1.6H29v10.6h2v-5.4c0-2 1-3.5 2.6-3.5 1.5 0 2.4 1 2.4 2.6v6.3h2v-5.6c0-2.4 1.4-3.3 2.6-3.3 1.5 0 2.4 1 2.4 2.6v6.3h2v-6.5c.1-2.5-1.4-4.3-3.9-4.3ZM47.8 13.06c0 1.7 1 2.7 2.8 2.7h2v-2h-1.7c-.7 0-1.1-.4-1.1-1.1V.36h-2v12.7ZM28.9 20.06c-.9-1.1-2.2-1.8-3.9-1.8-3.1 0-5.4 2.3-5.4 5.6s2.3 5.6 5.4 5.6c1.8 0 3-.8 3.8-1.9h.1v1.6h2v-10.6h-2v1.5Zm-3.6 7.4c-2.2 0-3.6-1.6-3.6-3.6s1.4-3.6 3.6-3.6 3.6 1.6 3.6 3.6c0 1.9-1.4 3.6-3.6 3.6ZM44.2 22.36c-.5-2.4-2.6-4.1-5.4-4.1a5.4 5.4 0 0 0-5.6 5.6c0 3.1 2.2 5.6 5.6 5.6 2.8 0 4.9-1.8 5.4-4.2h-2.1a3.4 3.4 0 0 1-3.3 2.3c-2.2 0-3.6-1.6-3.6-3.6s1.4-3.6 3.6-3.6c1.6 0 2.8 1 3.3 2.2h2.1v-.2ZM55.1 20.06c-.9-1.1-2.2-1.8-3.9-1.8-3.1 0-5.4 2.3-5.4 5.6s2.3 5.6 5.4 5.6c1.8 0 3-.8 3.8-1.9h.1v1.6h2v-10.6h-2v1.5Zm-3.6 7.4c-2.2 0-3.6-1.6-3.6-3.6s1.4-3.6 3.6-3.6 3.6 1.6 3.6 3.6c0 1.9-1.5 3.6-3.6 3.6ZM68.7 20.16c-.9-1.1-2.2-1.9-3.9-1.9-3.1 0-5.4 2.3-5.4 5.6s2.2 5.6 5.4 5.6c1.7 0 3-.8 3.8-1.8h.1v1.5h2v-15.4h-2v6.4Zm-3.6 7.3c-2.2 0-3.6-1.6-3.6-3.6s1.4-3.6 3.6-3.6 3.6 1.6 3.6 3.6c-.1 2-1.5 3.6-3.6 3.6ZM78.3 18.26c-3.3 0-5.5 2.5-5.5 5.6 0 3 2.1 5.6 5.5 5.6 2.5 0 4.5-1.3 5.2-3.6h-2.1c-.5 1-1.6 1.6-3 1.6-1.9 0-3.3-1.3-3.4-2.9h8.8c.2-3.6-2-6.3-5.5-6.3Zm0 1.9c1.7 0 3 1 3.3 2.6h-6.5c.3-1.5 1.5-2.6 3.2-2.6ZM98.2 18.26c-1.6 0-2.9.8-3.6 2h-.1c-.6-1.2-1.8-2-3.4-2-1.4 0-2.5.7-3.1 1.8v-1.5h-1.9v10.6h2v-5.4c0-2 1-3.4 2.6-3.5 1.5 0 2.4 1 2.4 2.6v6.3h2v-5.6c0-2.4 1.4-3.3 2.6-3.3 1.5 0 2.4 1 2.4 2.6v6.3h2v-6.5c.1-2.6-1.4-4.4-3.9-4.4ZM109.4 27.36l-3.6-8.9h-2.2l4.8 11.6c-.3.9-.7 1.2-1.7 1.2h-2.5v2h2.5c1.8 0 2.8-.8 3.5-2.6l4.7-12.2h-2.1l-3.4 8.9Z" fill="#000"></path></svg><svg fill="none" id="icon-search" viewBox="0 0 19 19"><path d="m18.5 17-3.7-3.67c1-1.3 1.7-2.98 1.7-4.87A8 8 0 0 0 8.5.5C4.1.5.5 4.18.5 8.56a8 8 0 0 0 12.9 6.26l3.7 3.68 1.4-1.5Zm-10-2.48a6 6 0 0 1-6-5.96 6 6 0 0 1 12 0 6 6 0 0 1-6 5.96Z" fill="#000"></path></svg><svg fill="none" id="white-background-welcome" viewBox="0 0 1200 57"><path fill="#fff" d="M0 57V0l250 24V0l350 57L950 0v24l250-24v57H0Z"></path></svg><svg fill="none" id="features-icons_icon-food" viewBox="0 0 76 72"><path fill="#83B3D3" d="M71.576 47.7H5.61c-2.305 0-4.11 1.9-4.11 4.3v3.5c0 2.4 1.905 4.3 4.11 4.3h.903v1.1c0 5.5 4.31 10.1 9.624 10.1h44.712c5.313 0 9.624-4.5 9.624-10.1v-1.1h.902c2.306 0 4.11-1.9 4.11-4.3V52c.201-2.3-1.704-4.3-3.91-4.3Zm-3.91 13.2c0 3.9-3.008 7-6.717 7H16.137c-3.71 0-6.717-3.2-6.717-7v-1.1h58.246v1.1Zm5.113-5.4c0 .7-.602 1.3-1.203 1.3H5.51c-.702 0-1.203-.6-1.203-1.3V52c0-.7.602-1.3 1.203-1.3h65.965c.702 0 1.203.6 1.203 1.3.1 0 .1 3.5.1 3.5ZM17.14 39.4l5.413 4.1 5.313-4.1 5.313 4.1 5.314-4.1 5.413 4.1 5.314-4.1 5.313 4.1 5.413-4.1 5.314 4.1 6.215-4.7-1.704-2.5-4.511 3.4-5.314-4.1-5.413 4.1-5.313-4.1-5.314 4.1-5.413-4.1-5.314 4.1-5.313-4.1-5.313 4.1-5.414-4.1-5.313 4.1-4.511-3.4-1.705 2.5 6.216 4.7 5.313-4.1ZM9.52 32.5h60.953c0-.6.1-1.2.1-1.9v-1.2C69.871 13.7 55.836 1 38.593 1 21.249 1 7.214 13.7 6.513 29.5v1.2c0 .6-.005 1.2.095 1.8H9.52ZM38.593 4c15.64 0 28.471 11.3 29.073 25.5H9.52C10.122 15.4 22.954 4 38.593 4Z"></path><path fill="#83B3D3" d="M38.593 18.3c1.052 0 1.905-.895 1.905-2s-.853-2-1.905-2-1.905.895-1.905 2 .853 2 1.905 2ZM30.773 13.2c1.052 0 1.905-.895 1.905-2s-.853-2-1.905-2-1.904.895-1.904 2 .852 2 1.904 2ZM46.312 13.2c1.052 0 1.905-.895 1.905-2s-.853-2-1.905-2-1.904.895-1.904 2 .852 2 1.904 2Z"></path></svg><svg fill="none" id="features-icons_icon-house" viewBox="0 0 76 72"><path fill="#83B3D3" d="M30.119 65h16.064V41.2H30.119V65Zm2.911-20.9h10.14v18H33.03v-18Z"></path><path fill="#83B3D3" d="m73.392 39.3 2.108-2.1-9.94-9.9V0H51.604v13.6L37.95 0 .5 37.2l2.108 2.1 7.832-7.8v37.6H6.424V72H70.58v-2.9h-5.12V31.5l7.932 7.8ZM62.548 69.1H13.351V28.5L37.95 4.1l24.598 24.4v40.6Zm0-44.7-7.931-7.9V2.9h7.931v21.5Z"></path><path fill="#83B3D3" d="M30.32 27.1c0 4.3 3.513 7.7 7.73 7.7 4.318 0 7.832-3.5 7.832-7.7 0-4.3-3.514-7.7-7.832-7.7-4.217 0-7.73 3.4-7.73 7.7Zm7.83-5c2.711 0 5.02 2.2 5.02 4.9s-2.208 4.9-5.02 4.9c-2.71 0-5.02-2.2-5.02-4.9s2.21-4.9 5.02-4.9ZM20.48 41.2h-3.012v3.9h3.012v-3.9ZM26.404 41.2h-3.012v3.9h3.012v-3.9ZM20.48 47.2h-3.012v3.9h3.012v-3.9ZM26.404 47.2h-3.012v3.9h3.012v-3.9ZM52.508 41.2h-3.012v3.9h3.012v-3.9ZM58.432 41.2H55.42v3.9h3.012v-3.9ZM52.508 47.2h-3.012v3.9h3.012v-3.9ZM58.432 47.2H55.42v3.9h3.012v-3.9Z"></path></svg><svg fill="none" id="features-icons_icon-souvenirs" viewBox="0 0 76 76"><path fill="#83B3D3" d="M67.6 22.462H42.8c13.8-6.904 14.9-11.307 14.4-13.71-1.2-4.002-5.7-7.004-10-5.403-5.6 2.102-7.1 10.407-8.6 16.412-2-6.105-3.8-13.81-8.2-17.713-1.3-1.1-3.1-2.301-5.8-2.001-4 .4-9.8 5.404-7.5 11.008 2.3 5.403 9.7 8.806 14.6 11.508H9.4c-1.6 0-2.9 1.3-2.9 2.902v11.308c0 1.6 1.3 2.901 2.9 2.901h.3V76h57.8V39.574h.1c1.6 0 2.9-1.3 2.9-2.902V25.365c0-1.602-1.3-2.902-2.9-2.902ZM48.9 5.851c2.1-.3 5 1.3 5.3 3.202.4 2.802-3.4 5.304-5.1 6.405-2.5 1.7-4.9 2.601-7.3 4.102.9-3.702 2.5-13.009 7.1-13.71ZM26 15.858c-2.2-1.501-6.5-4.403-6.4-7.806.1-3.602 5.7-6.604 8.8-3.902 3.9 3.402 5.7 11.107 7.1 16.611-3.2-1.5-6.3-2.802-9.5-4.903Zm6 57.14H12.6V39.574H32v33.424Zm0-36.526H9.5V25.465H32v11.007Zm10.2 0v36.526H35V25.565h7.2v10.907Zm22.3 36.526H45.1V39.574h19.4v33.424Zm2.9-36.526H45.1V25.465h22.3v11.007Z"></path></svg><svg fill="none" id="social-networks_icon-social-telegram" viewBox="0 0 48 41"><path d="M31.79 12.96 15.84 19.1c-1.09.44-1.08 1.05-.2 1.32l4.1 1.28 9.47-5.98c.44-.27.85-.13.52.17l-7.68 6.93-.28 4.22c.41 0 .6-.2.83-.41l1.99-1.94 4.13 3.06c.77.42 1.31.2 1.5-.7l2.72-12.8c.28-1.12-.43-1.62-1.15-1.3Z" fill="#83B3D3"></path></svg><svg fill="none" id="social-networks_icon-social-vk" viewBox="0 0 48 41"><path fill-rule="evenodd" clip-rule="evenodd" d="M35.12 14.8c.16-.54 0-.94-.8-.94H31.7c-.67 0-.98.34-1.15.73 0 0-1.33 3.2-3.22 5.27-.61.6-.9.8-1.23.8-.16 0-.41-.2-.41-.75v-5.1c0-.66-.19-.95-.74-.95h-4.13c-.42 0-.67.3-.67.59 0 .62.95.76 1.04 2.51v3.8c0 .83-.15.98-.48.98-.9 0-3.06-3.2-4.34-6.88-.25-.72-.5-1-1.18-1h-2.62c-.75 0-.9.34-.9.73 0 .68.89 4.07 4.14 8.55 2.17 3.06 5.23 4.72 8 4.72 1.68 0 1.88-.37 1.88-1v-2.32c0-.74.16-.88.7-.88.38 0 1.05.19 2.6 1.66 1.79 1.75 2.08 2.54 3.08 2.54h2.63c.75 0 1.12-.37.9-1.1-.23-.72-1.08-1.77-2.2-3.02-.62-.71-1.54-1.48-1.82-1.86-.39-.5-.28-.71 0-1.15 0 0 3.2-4.42 3.54-5.93Z" fill="#83B3D3"></path></svg><svg fill="none" id="social-networks_icon-social-youtube" viewBox="0 0 48 41"><path d="M31.94 12.36H16.51c-1.86 0-3.18 1.59-3.18 3.4v10.09c0 1.91 1.32 3.5 3.18 3.5h15.65c1.64 0 3.17-1.59 3.17-3.4v-10.2c-.22-1.8-1.53-3.4-3.39-3.4ZM20.99 24.89v-8.07l7.34 4.04-7.34 4.03Z" fill="#83B3D3"></path></svg><svg fill="none" id="types-of-cards-view_view-cards-gallery" viewBox="0 0 16 14"><path d="M16 12H0v2h16v-2ZM14 2v6H2V2h12Zm2-2H0v10h16V0Z" fill="#000"></path></svg><svg fill="none" id="types-of-cards-view_view-list" viewBox="0 0 16 14"><path d="M2 0H0v2h2V0ZM16 0H4v2h12V0ZM2 4H0v2h2V4ZM16 4H4v2h12V4ZM2 8H0v2h2V8ZM16 8H4v2h12V8ZM2 12H0v2h2v-2ZM16 12H4v2h12v-2Z" fill="#000"></path></svg><svg fill="none" id="types-of-cards-view_view-table" viewBox="0 0 16 14"><path d="M4 0H0v6h4V0ZM16 0h-4v6h4V0ZM10 0H6v6h4V0ZM4 8H0v6h4V8ZM16 8h-4v6h4V8ZM10 8H6v6h4V8Z" fill="#000"></path></svg></svg>