<svg xmlns="http://www.w3.org/2000/svg" viewBox="0 0 78 78"><path fill="#83b3D3" d="M71.9 54.7H6.1C3.8 54.7 2 56.6 2 59v3.5c0 2.4 1.9 4.3 4.1 4.3H7v1.1C7 73.4 11.3 78 16.6 78h44.6c5.3 0 9.6-4.5 9.6-10.1v-1.1h.9c2.3 0 4.1-1.9 4.1-4.3V59a4 4 0 0 0-3.9-4.3ZM68 67.9c0 3.9-3 7-6.7 7H16.6c-3.7 0-6.7-3.2-6.7-7v-1.1H68v1.1Zm5.1-5.4c0 .7-.6 1.3-1.2 1.3H6c-.7 0-1.2-.6-1.2-1.3V59c0-.7.6-1.3 1.2-1.3h65.8c.7 0 1.2.6 1.2 1.3.1 0 .1 3.5.1 3.5ZM17.6 46.4l5.4 4.1 5.3-4.1 5.3 4.1 5.3-4.1 5.4 4.1 5.3-4.1 5.3 4.1 5.4-4.1 5.3 4.1 6.2-4.7-1.7-2.5-4.5 3.4-5.3-4.1-5.4 4.1-5.3-4.1-5.3 4.1-5.4-4.1-5.3 4.1-5.3-4.1-5.3 4.1-5.4-4.1-5.3 4.1-4.5-3.4-1.7 2.5 6.2 4.7 5.3-4.1Zm53.2-6.9c0-.6.1-1.2.1-1.9v-1.2C70.2 20.7 56.2 8 39 8 21.7 8 7.7 20.7 7 36.5v1.2c0 .6 0 1.2.1 1.8h63.7ZM39 11c15.6 0 28.4 11.3 29 25.5H10C10.6 22.4 23.4 11 39 11Zm0 14.3c1.05 0 1.9-.9 1.9-2s-.85-2-1.9-2c-1.05 0-1.9.9-1.9 2s.85 2 1.9 2Zm-7.8-5.1c1.05 0 1.9-.9 1.9-2s-.85-2-1.9-2c-1.05 0-1.9.9-1.9 2s.85 2 1.9 2Zm15.5 0c1.05 0 1.9-.9 1.9-2s-.85-2-1.9-2c-1.05 0-1.9.9-1.9 2s.85 2 1.9 2Z"/></svg>